<?xml version="1.0" encoding="UTF-8"?><svg id="a" xmlns="http://www.w3.org/2000/svg" width="408.57" height="28.84" viewBox="0 0 408.57 28.84"><path id="b" d="M8.3,27.98c-6.08,0-8.3-3.38-8.3-7.86C0,10.66,12.59,0,22.53,0c3.86,0,6.08,1.88,6.08,4.44,0,3.47-4.39,7.29-9.94,8.54l-.29-1.06c4.58-1.25,7.77-3.72,7.77-5.26,0-1.21-1.74-1.74-3.96-1.74C12.93,4.92,2.56,11.82,2.46,17.13c-.05,3.91,3.14,5.31,8.06,5.31,3.81,0,11.53-1.55,16.4-8.84v.25c-5.69,8.25-13.36,14.14-18.62,14.14ZM47.75,8.4l-.39.39c-3.96,4-6.22,8.88-6.22,11.34,0,1.16.48,2.7,2.65,2.7s4.78-2.17,6.56-4.34h.96c-2.51,3.91-7.43,9.36-11.77,9.36-2.07,0-3.14-1.64-3.14-3.04,0-3.47,3.18-8.39,6.37-12.4-.77.43-1.5.72-2.07.77-5.11,6.66-12.83,14.67-17.27,14.67-1.64,0-2.61-1.21-2.61-2.65,0-6.22,10.52-18.09,15.68-18.09,2.56,0,2.27,2.85,5.07,2.85,2.07.05,5.02-2.22,5.02-2.22l1.16.68ZM27.54,22.82c2.51,0,7-3.81,11.58-9.99-1.5-.72-2.41-2.27-4.29-2.27-3.52,0-9.36,5.6-9.36,9.55,0,1.16.19,2.7,2.07,2.7ZM56.68,14.09c0-1.3.11-1.89-1.68-1.89-.15,0-2.81,5.26-3.68,6.28h-.96c2.32-3.28,6.18-11.39,6.51-11.39,2.07,0,3.09,1.4,3.09,3.04s-1.74,5.26-3.86,9.55h1.74c2.8-5.84,7.29-12.59,11.34-12.59,2.41,0,3.38,1.21,3.38,3.14,0,2.61-3.43,7.09-4.49,9.46h1.83c2.7-5.79,7.14-12.59,12.01-12.59,1.64,0,2.9,1.25,2.9,2.85,0,3.28-4.54,8.25-4.54,10.61,0,1.5,1.54,2.22,2.56,2.22,2.36,0,4.87-2.07,6.61-4.29h.92c-2.56,3.91-7.29,9.36-10.61,9.36-2.12,0-3.09-1.3-3.09-2.89,0-3.43,4.49-8.49,4.49-11.34,0-1.11-.92-1.69-1.88-1.69-5.07,0-8.35,7.86-9.89,15.2h-6.95c4.87-9.79,6.8-12.11,6.8-13.75,0-1.11-.92-1.64-1.88-1.64-4.54,0-8.64,7.67-10.81,15.39h-6.51c3.76-6.9,6.66-10.08,6.66-13.03ZM104.89,7.09c2.46,0,4.1,1.45,4.1,3.33,0,4.44-7.24,9.6-12.25,9.6-2.75,0-4.39-1.4-5.16-2.9-.53,1.21-.72,1.83-.72,2.9,0,1.78,1.5,3.47,5.55,3.47s7.91-1.69,11.53-5.02h1.01c-4.25,4.87-9.36,9.36-14.19,9.36-4.54,0-6.18-2.51-6.18-5.84,0-6.75,9.75-14.91,16.31-14.91ZM97.12,17.03c5.84,0,9.7-2.75,9.7-4.44,0-.63-.63-1.21-2.56-1.21-2.85,0-8.15.96-11.68,4.25.58.63,1.79,1.4,4.54,1.4ZM115.94,13.17c0-1.25-1.26-.65-2.81-.65-.14,0-3.32,4.95-4.19,5.96h-1.01c2.32-3.23,7.72-11.39,8.06-11.39,2.07,0,3.09,1.21,3.09,2.85s-2.27,5.36-4.78,9.75h1.59c4.78-8.11,10.18-12.59,16.02-12.59l-.31,1.04c-.07-.02-2.12,1.5-3.46,1.51-4.2.04-11.19,9.27-14.08,17.47h-6.08c.97-1.74,7.96-12.01,7.96-13.94ZM127.76,22.05c0-4.39,3.76-9.17,8.3-12.11v-.43c.13-.83-3.81-1.33-4.46-1.37l.31-1.04c.79-.14,5.33,1.53,5.07,2.32,2.41-1.45,5.02-2.32,7.33-2.32,3.14,0,4.44,1.83,4.44,4.1,0,.39-.05.77-.14,1.25.19.48.24,1.06.24,1.74,0,6.56-9.46,13.65-14.72,13.65-4.54,0-6.37-2.99-6.37-5.79ZM135.38,22.92c4.92,0,10.95-4,11.77-7.86-.82.82-2.07,1.4-3.86,1.4-2.9,0-5.4-1.64-6.56-4.05-4,1.88-6.75,5.16-6.75,7.48,0,1.98,2.12,3.04,5.4,3.04ZM143.29,14.09c3.33,0,3.81-.82,3.81-1.59,0-.87-1.16-1.64-3.81-1.64-1.88,0-3.72.39-5.4,1.01.87,1.25,2.46,2.22,5.4,2.22ZM165,27.84c-2.08,0-3.04-1.25-3.04-2.85,0-3.47,5.69-9.89,5.69-11.72,0-1.11-.82-1.59-2.07-1.59-5.93,0-11.87,7.77-14.09,15.44h-6.47c.97-1.74,7.91-11.87,7.91-13.8,0-1.25-1.21-1.64-2.75-1.64-.14,0-.77.63-1.64,1.64h-.77c2.32-3.23,4.87-6.22,5.21-6.22,2.07,0,3.09,1.35,3.09,2.99s-2.27,5.31-4.73,9.65h1.5c3.72-5.93,10.66-12.64,15.68-12.64,1.93,0,2.7,1.01,2.7,2.7,0,3.67-5.64,8.3-5.64,10.76,0,1.54,1.45,2.27,2.51,2.27,2.36,0,4.78-2.12,6.46-4.34h.96c-2.46,3.91-7.19,9.36-10.52,9.36Z"/><path id="c" d="M407.7,19.48c-1.74,2.17-4.34,4.34-6.71,4.34-.77,0-1.83-.29-1.83-1.59,0-3.57,6.8-8.64,6.8-11.58,0-1.06-1.05-2.23-3.3-2.5l1.53-2.8c.3.08.61.13.95.13,1.45,0,2.7-.92,2.7-2.27,0-1.11-1.25-2.12-2.7-2.12-1.54,0-2.75,1.01-2.75,2.12,0,.86.49,1.53,1.23,1.92l-1.18,3c-.25-.02-.5-.05-.78-.05-.39,0-5.42,7.96-7.93,11.39-1.69,2.22-4.1,4.34-6.47,4.34-1.06,0-2.51-.72-2.51-2.27,0-2.46,5.65-7.09,5.65-10.76,0-1.69-.77-2.7-2.7-2.7-5.02,0-11.97,6.71-15.68,12.64h-1.5c2.46-4.34,4.7-8.01,4.73-9.65.03-2.26-1.5-2.52-3.09-2.99-1.18-.35-5.44,7.29-7.16,11.39-1.74,2.17-4.34,4.34-6.71,4.34-.77,0-1.83-.29-1.83-1.59,0-3.57,6.8-8.64,6.8-11.58,0-1.08-1.08-2.26-3.4-2.5l1.54-2.81c.32.1.67.15,1.04.15,1.45,0,2.7-.92,2.7-2.27,0-1.11-1.25-2.12-2.7-2.12-1.54,0-2.75,1.01-2.75,2.12,0,.82.45,1.48,1.15,1.87l-1.19,3.04c-.22-.02-.43-.04-.68-.04-.39,0-5.34,7.96-7.85,11.39-4.05,4.39-6.8,5.02-9.07,5.02-3.52,0-4.87-1.74-4.78-4.15.05-1.79,1.79-4.39,3.81-7.19,2.22,1.25,4.54,2.46,6.37,2.46,3.81,0,5.64-3.57,6.46-6.8h-.77c-.87,2.51-4.54,4.25-7.72,4.25-1.45,0-2.61-.39-3.57-.92,2.7-3.72,5.64-7.67,5.64-10.61l-4.39,1.79c.43.48.58,1.3.58,2.17,0,1.79-1.21,3.86-2.85,6.03-1.98-1.5-3.72-4.89-5.45-3.43-2.54,2.15-2.88.03-3.7,0-5.84,0-11.24,4.49-16.02,12.59h-1.59c2.51-4.39,4.78-8.11,4.78-9.75s-1.01-2.85-3.09-2.85c-.34,0-5.96,8.15-8.28,11.39-1.79,2.17-4.29,4.34-6.56,4.34s-2.65-1.54-2.65-2.7c0-2.46,2.27-7.33,6.22-11.34l.39-.39-1.16-.68s-2.94,2.27-5.02,2.22c-2.8,0-2.51-2.85-5.07-2.85-3.6,0-9.81,5.78-13.24,11.39-1.69,2.24-4.22,3.81-6.33,3.81-2.36,0-3.47-1.21-3.47-3.09,0-2.8,1.83-6.13,6.75-18.62h-4.1l-15.29,19.06h-1.83l1.11-4.58c2.51-10.37-3.09-15.2-5.26-15.2-.34,0-3.86,3.04-6.18,6.27h.77c.87-1.01,2.03-2.32,2.17-2.32,1.5,0,3.52.58,4.97,2.12-1.3,2.22-2.94,4.44-4.78,7.53-.63.92-1.16,1.79-1.69,2.56-2.51,4.01-4.78,6.27-7.72,6.27-2.75,0-5.41-.53-4.06-3.81h-1.01c-3.62,3.33-7.53,5.02-11.53,5.02s-5.55-1.69-5.55-3.47c0-1.06.19-1.69.72-2.9.77,1.5,2.41,2.9,5.16,2.9,5.02,0,12.26-5.16,12.26-9.6,0-1.88-1.64-3.33-4.1-3.33-4.06,0-9.35,3.13-12.78,7.11-.25.29-.48.58-.71.87-1.29-.46-2.55-.53-2.56-.53.11-.15.21-.3.29-.43l-.06.09c1.56-2.32,2.5-4.74,2.5-7.06,0-4.25-5.36-6.56-14.72-6.56h-5.84c-.34,0-2.8,2.32-5.11,5.55h.77c.87-1.01,2.03-2.32,2.17-2.32.68,0,1.74-.05,3.38-.05l-.68,1.01c-.39.58-.82,1.16-1.21,1.79-1.35,2.12-2.89,4.68-4.39,7.24-5.02,1.25-8.88,3.67-8.88,8.15,0,2.51,2.22,5.89,8.3,5.89,7.2,0,17.15-5.44,22.48-12l-.08.11s.12-.15.29-.36c0,0,0,0,0,0,.52-.08,1.56.42,2.37.87-1.15,1.83-1.86,3.74-1.86,5.55,0,3.33,1.64,5.84,6.18,5.84,4.11,0,8.43-3.26,12.24-7.24-.07.49-.07,1.08-.07,1.93,0,3.57,2.08,5.31,4.87,5.31,3.43,0,6.32-2.89,10.71-11.05l1.3-2.41c1.45-2.7,3.09-5.36,4.2-7.43.96,1.54,1.01,3.72.53,6.75-.63,4.15-1.59,7.72-3.81,13.41h5.16c3.09-6.66,9.31-14.09,14.18-19.3h1.83c-2.36,5.6-5.69,12.25-5.69,15.68,0,3.09,1.59,4.34,3.91,4.34s5.45-2.67,7.91-5.62c-.38,1.07-.61,2.08-.61,2.97,0,1.45.96,2.65,2.61,2.65,4.44,0,12.16-8.01,17.27-14.67.58-.05,1.3-.34,2.08-.77-3.18,4-6.37,8.93-6.37,12.4,0,1.4,1.06,3.04,3.14,3.04,4.34,0,9.26-5.45,11.77-9.36.87-1.01,4.37-6.95,4.51-6.95,1.54,0,2.75.39,2.75,1.64,0,1.93-7,12.21-7.96,13.94h6.08c2.9-8.2,9.31-14.29,13.03-16.24.61-.32,2.65-2.06,3.2-1.56.38.33,3.28,2.79,5.23.72,1.26-1.33,2.94.53,4.73,1.54-3.43,4.29-8.01,8.88-8.01,12.4,0,2.41,1.54,3.86,4.29,3.86,4.34,0,11.53-3.86,15.83-9.36.87-.97,4.18-6.66,4.28-6.66,2.32,0,2.65.49,2.65,1.45,0,2.8-8.01,7.38-8.01,11.82,0,1.88,1.21,2.75,3.38,2.75,4,0,8.93-5.4,11.43-9.36.87-1.01,3.35-6.8,3.49-6.8,1.54,0,2.75.39,2.75,1.64,0,1.93-6.95,12.06-7.91,13.8h6.47c2.22-7.67,8.15-15.44,14.09-15.44,1.25,0,2.08.48,2.08,1.59,0,1.83-5.69,8.25-5.69,11.72,0,1.59.96,2.85,3.04,2.85,3.33,0,8.06-5.45,10.52-9.36.62-1.01,4.18-6.66,4.28-6.66,2.32,0,2.78.49,2.78,1.45,0,2.8-8.01,7.38-8.01,11.82,0,1.88,1.21,2.75,3.38,2.75,4,0,8.93-5.4,11.43-9.36h-.87ZM230.81,12.39c1.93,0,2.56.58,2.56,1.21,0,1.69-3.86,4.44-9.7,4.44-2.75,0-3.96-.77-4.54-1.4,3.52-3.28,8.83-4.25,11.68-4.25ZM185.94,20.83c0-1.35,1.83-3.04,5.55-4.25-1.21,2.22-2.27,4.39-2.99,6.22-1.64-.39-2.56-1.06-2.56-1.98ZM193.66,23.29c-.96,0-1.83-.05-2.65-.1.68-2.51,1.69-4.92,2.85-7.24,2.9-.68,6.56-1.11,11.1-1.11v-1.3c-3.23,0-6.9.19-10.23.77,1.25-2.32,2.65-4.58,4.05-6.75.67-.92,1.3-1.88,1.93-2.85h2.27c4.39,0,12.79.87,12.79,6.22,0,5.69-12.79,12.35-22.1,12.35ZM284.69,23.82c-1.88,0-2.07-1.54-2.07-2.7,0-3.96,5.84-9.55,9.36-9.55,1.88,0,2.8,1.54,4.29,2.27-4.58,6.18-9.07,9.99-11.58,9.99Z"/></svg>